<?xml version="1.0" encoding="utf-8"?>
<!-- Generator: Adobe Illustrator 28.3.0, SVG Export Plug-In . SVG Version: 6.00 Build 0)  -->
<svg version="1.1" id="レイヤー_1" xmlns="http://www.w3.org/2000/svg" xmlns:xlink="http://www.w3.org/1999/xlink" x="0px"
	 y="0px" viewBox="0 0 119.5 22" style="enable-background:new 0 0 119.5 22;" xml:space="preserve">
<style type="text/css">
	.st0{fill:#FFFFFF;}
</style>
<g>
	<path class="st0" d="M16.6,6.8C15.3,7.2,14,7,12.7,7.1c-0.5,0-1-0.1-1.1-0.8c-0.1-2-1.8-2.2-3.1-2.7C7.8,3.3,7.2,3.9,6.9,4.5
		c-0.5,0.7,0.3,1,0.7,1.3c0.1,0.1,0.1,0.1,0.2,0.1C8.3,6,8.7,6.3,8.5,7C8.3,7.5,7.9,7.9,7.2,7.8c-1-0.1-2-0.1-2.9,0.2
		C2.9,8.6,1.3,8.2,0,9c0,0.2,0,0.3,0,0.5c1.5,0.9,3,1.2,4.7,0.4c1-0.5,2.1-0.3,3.2-0.5C8.8,9.3,9.7,9.2,10.6,9
		c1.7-0.4,3.3-0.7,5.1-0.2c1.2,0.3,2.6,0.6,3.9,0.7c0.4,0,0.8,0,1-0.5c0.1-0.3,0.1-0.7-0.1-0.9C19.2,7.4,18.2,6.2,16.6,6.8z"/>
	<path class="st0" d="M28.5,11.4c0-0.6,0-1.3-0.1-1.9c-0.2-1.1-1.2-1.7-2.2-1.3c-0.3,0.1-0.6,0.3-0.6,0.6c0,0.2,0.2,0.4,0.4,0.6
		c1.7,1.6,2.1,3.7,0.8,5.4c-0.2,0.3-0.7,0.5-0.7,0.9c0,0.5,0.4,0.9,0.7,1.3c0.3,0.3,0.6,0.8,1.4,0.8c0.7-2.8,1.9-5.6,2.4-8.8
		C29.2,9.7,29.5,11,28.5,11.4z"/>
	<path class="st0" d="M7.5,11.3c-0.3-0.2-0.7-0.4-1.1-0.5c-0.7-0.3-1.3,0.2-1,0.9c0.3,0.8,0.1,1.2-0.4,1.8c-0.6,0.8-1.2,1.6-2.3,2.5
		c2.5,0.5,3.9-0.7,5.1-2C8.8,12.9,8.7,12.1,7.5,11.3z"/>
	<path class="st0" d="M17.5,13.3c-1.6-1-3.2-2.1-5.6-1.6c1.9,1.3,3.2,2.6,4.4,4.1c0.3,0.4,0.6,0.9,1.2,0.7c0.6-0.3,0.9-1,0.8-1.6
		C18.2,14.3,18,13.7,17.5,13.3z"/>
	<path class="st0" d="M66.6,16.3c-0.8-0.6-1.7-1-2.8-0.9c-0.6,0-1.1,0-1.7-0.1c-0.1,0-0.2-0.2-0.3-0.4c-0.2-0.3,0-0.5,0.2-0.6
		c0.8-0.3,1.5-0.5,2.3-0.8c0.3-0.1,0.7-0.2,0.7-0.6c0-0.5-0.4-0.8-0.8-0.9c-0.5-0.1-1,0-1.5-0.1c-0.3,0-0.7,0.1-0.7-0.4
		s0.4-0.5,0.7-0.5c0.6-0.1,1.5,0,1.5-0.9c-0.1-0.8-1-0.7-1.7-0.7c-0.1,0-0.2-0.1-0.4-0.2c0.2-0.5,0.7-0.7,1.2-0.7
		c0.6,0,1.2,0,1.7-0.3c0.4-0.2,1-0.1,0.9-0.7c0-0.5-0.4-0.8-0.8-0.8c-1.4,0-2.6-0.3-3.7-1.1c-0.3-0.2-1-0.1-1.5-0.1
		c-0.2,0-0.4,0.2-0.4,0.5c-0.3,1.8-0.3,1.8-2.3,2.1c0.4-1.1,1.7-1.9,1.2-3.2c-0.1-0.2,0.2-0.4,0.5-0.4c0.4,0,0.9-0.2,1.2,0
		c1.2,0.7,2-0.1,2.8-0.8c0.7-0.7,0.6-1.5,0-2.4c-0.6-1-1.8-0.6-2.5-1.3c-1.7,0-3.3,0-5,0c-0.2,0.7-0.8,0.4-1.2,0.5
		c-0.9,0.2-2,0.2-2.5,0.7C51,2,51.9,2.9,52,3.8C52.1,4.5,52,5,51.2,5c-0.2,0-0.5,0-0.7,0.1c-0.3,0.1-0.4,0.3-0.3,0.6
		c0,0.1,0.2,0.2,0.4,0.3c0.3,0.1,0.7,0,0.8,0.4c-0.3,0.7-1,1-1.5,1.6S49.5,9.2,50,9.8c0.3,0.4,1.1,0.1,1.1,0.9
		c-0.3,0.7-1.5,1.2-0.3,2.2c0.3,0.2,0.9,0.2,0.8,0.8c-0.1,0.4-0.3,0.8-0.5,1.1s-0.6,0.4-0.8,0.6c-0.4,0.5,0.1,1.9,0.7,2.1
		c0.6,0.2,1-0.2,1.2-0.7c1-1.7,1.9-3.5,2.5-5.4c0.2-0.6,0.4-1.3,0.7-1.9c0.1-0.3,0.4-0.6,0.8-0.3c0.2,0.1,0.3,0.4,0.3,0.6
		c-0.5,2.3-0.2,4.6-0.4,7c-0.1,0.7,0.1,1.5-0.6,2.1c-0.6,0.6-0.4,1.2,0.1,1.8c0.3,0.4,0.7,0.8,0.6,1.3c0.3,0,0.7,0,1,0
		c0-1,0-2-0.1-3c0-0.9,0.4-1.4,1.3-1.5c1.2-0.1,2.4-0.4,3.7-0.5c0.9-0.1,1.8,0,2.7,0.4c0.4,0.2,0.8,0.6,1.4,0.5c0.5,0,0.8-0.3,1-0.7
		C67.2,16.9,66.9,16.6,66.6,16.3z M60.4,1.5c0,0,0.4,0,0.7,0.1s0.4,0.5,0.2,0.8C61,2.7,60.7,3,60.3,3C59.8,3,59,3.2,59,2.3
		C58.9,1.5,59.5,1.4,60.4,1.5z M54.8,2.3c0.3,0.4,0.1,1.5-0.3,1.7c-0.8,0.3-1-0.2-1.2-0.8c-0.1-0.3-0.2-0.6-0.4-1
		C53.8,2,54.4,1.8,54.8,2.3z M56.1,6.7c-0.9,1.7-1.9,3.4-2.9,5.1c-0.6-0.7,0.1-1.2,0.3-1.8C53.9,8.9,54,8.9,53,7.6
		c0.8-0.7,1.4-1.3,2-1.8c0.4-0.3,0.8-0.6,1.3-0.2C56.7,6,56.3,6.4,56.1,6.7z M56.1,2c0-0.4,0.4-0.5,0.7-0.5c0.5,0,0.7,0.3,0.7,0.8
		c0,0.4-0.2,0.8-0.6,1C56.6,3.4,56.1,2.5,56.1,2z M59.2,15.9c-0.3,0.1-0.6,0.1-0.9,0.2c-0.4,0.1-0.7,0.4-1.1,0.1
		c-0.3-0.3-0.3-0.7-0.2-1.1c0.2-0.7,0.7-0.5,1.2-0.5c0.1,0,0.2,0,0.2,0l0,0c0.2,0,0.5,0,0.7,0c0.3,0.1,0.6,0.3,0.7,0.6
		C59.8,15.5,59.5,15.8,59.2,15.9z M59.4,13c-0.5,0.2-0.9,0.4-1.4,0.5c-0.4,0.1-0.9,0.2-1-0.4c-0.1-0.5-0.1-1,0.6-1.1
		c0.3,0,0.6,0,0.9,0c0.2,0,0.4-0.1,0.6,0c0.3,0.1,0.7,0.1,0.7,0.5C59.9,12.8,59.7,12.9,59.4,13z M57.5,10.2c0-0.1,0-0.2,0-0.2
		C58.2,9.1,59,9.5,60,9.7C58.6,10.6,57.9,10.7,57.5,10.2z"/>
	<path class="st0" d="M118,5.7c-0.8-0.5-1.6-0.9-2.6-0.7c-2.3,0.6-4.5-0.6-6.8,0c0.5-0.7,1.1-0.8,1.8-1c0.5-0.1,0.7-0.4,0.6-0.9
		c-0.1-0.4-0.4-0.6-0.7-0.6c-1.2,0.2-1.8-0.2-2-1.4c-0.1-0.6-1-0.5-1.3-1.1c-0.3,0-0.7,0-1,0c0,0.1,0,0.2-0.1,0.2
		c-0.5,0.4-1.7,0.7-0.2,1.4c0.4,0.2,0.9,0.6,0.6,1.2c-0.2,0.4-0.6,0.6-1,0.6c-0.7,0.1-1.5-0.2-2.2,0.3c0.7,1,1.8,1.1,2.8,1.6
		c-3.3,0.5-6.5,1.4-10.2,1.5c1.5,1.6,2.9,1.9,4.7,1.4c1.4-0.4,2.9-0.8,4.3-1.1c1.2-0.3,2.1,0.3,3,0.8c0.3,0.1,0.2,0.4,0,0.6
		c-0.3,0.3-0.7,0.4-1.2,0.4c-1.9,0-3.5,0.9-5.4,1.2c0.3,0.3,0.3,0.5,0.5,0.5c1.4,0.3,1.6,1.6,2.3,2.5c0.6,0.7-0.3,1.4-0.4,2.1
		c-0.2,0.8,0,1.6,0.8,1.7c1.1,0.1,1.6,0.6,2.1,1.5c0.4,0.7,1,1.3,1.5,2c0.7,1,2.1,0.9,2.7-0.2c0.3-0.5,0.5-1,0.4-1.6
		c-0.5-2.2-0.3-4.5-0.4-6.7c0-1.4,0.1-1.6,1.6-1.4c0.4,0.1,0.8,0.2,1.2,0.3c0.5,0.2,0.8-0.1,1.1-0.4c0.3-0.4,0.1-0.7-0.1-1.1
		c-0.4-0.9-1.1-1-1.9-0.9c-1.5,0.2-2.5-0.5-3.3-1.9c2.2,0.4,4.3,0.2,6.2,1c1.4,0.5,2.7,0.6,4.1,0.4c0-0.3,0-0.7,0-1
		C119,6.6,118.5,6.1,118,5.7z M108.5,15.4c0,0.3,0,0.7-0.4,1c-0.7-0.4-1.8-0.2-1.6-1.6c0.3-1.7-0.3-2.8-2.2-3.5
		c1.2-0.3,2-0.6,2.9-0.8s1.3,0,1.3,0.9C108.6,12.8,108.5,14.1,108.5,15.4z"/>
	<path class="st0" d="M42.4,14.7c-0.5-0.3-1-0.5-1.5-0.8c-1-0.6-1-0.7-0.4-1.7c0.5-0.8,1.2-1.5,0.6-2.7c-0.3-0.6,0.1-1.1,0.8-1.4
		c0.3-0.1,0.7-0.1,1-0.3c0.7-0.4,0.9-1,0.3-1.6c-1-1.1-2.3-1.8-3.8-1.2c-0.6,0.2-1.1,0.1-1.1-0.5c-0.1-1.3-1-1.5-2-1.8
		c-0.5-0.2-0.8,0-1,0.4c-0.3,0.5,0,0.7,0.4,0.9c0.5,0.2,1.1,0.5,0.9,1.3c-0.1,0.7-0.8,0.8-1.3,1c-0.4,0.2-1,0.4-1.4,0.1
		C33,5.8,31.7,6,30.8,5c-0.7-0.9-1.8-0.8-2.6,0.2c0.5,0.4,1.1,0.6,1.3,1.1c0.4,1,1.1,1,1.8,0.6c0.8-0.4,1.1-0.1,1.3,0.5
		c0.6,2.1,0.4,4.3-0.5,6.2c-0.7,1.5-0.7,2.6,0.2,3.8c2.5-0.1,4.7-0.9,6.5-2.8c1.4,1.1,2.5,2.6,4,3.5c0.4,0.2,0.6,0.6,1.1,0.5
		c0.3,0,0.8-0.1,0.6-0.6C44,16.7,43.7,15.4,42.4,14.7z M37.6,8.1c0.3-1.5,1.5-1.7,2.9-1.9c-0.3,1-1.1,1.7-1.3,2.7
		c-0.1,0.4-0.8,0.6-1.3,0.5C37.3,9.2,37.5,8.6,37.6,8.1z M33.6,16.4c-0.4-2.7,0-5.3,0.5-7.8c0.1-0.7,1-1,1.8-1
		c0.1,0,0.4,0.1,0.4,0.2c0,0.5,0.1,1.1,0,1.6s-0.6,0.5-1,0.6c-0.9,0.3-1.1,1.1-0.4,1.6c0.8,0.6,1.6,1.1,2.5,1.7
		C36.3,14.5,35.3,15.8,33.6,16.4z M39.3,11.3c-0.3,0.5-0.7,0.9-1.4,0.7c-0.3-0.1-0.7-0.1-0.8-0.4c-0.1-0.4,0.2-0.5,0.5-0.6
		c0.4-0.1,0.7-0.3,1.1-0.4c0.2-0.1,0.5,0,0.6,0.2C39.4,11,39.4,11.2,39.3,11.3z"/>
	<path class="st0" d="M87.7,2.4C86.5,2.3,85.3,2,84,2c-1.3-0.1-2.8,0.5-3.7-1.2c-0.3-0.7-1.3-0.4-2-0.1C77.4,0.9,77.9,1.5,78,2
		s-0.4,0.5-0.7,0.5c-1,0.1-2,0-3.1-0.6c-0.1,1.6-1.4,2.3-2,3.5c-0.3,0.7,0,1.4,1,2c0.8,0.4,1.1-0.2,1.2-0.8c0.2-1,0.6-1.8,1.5-2.1
		c0.9-0.2,1.9-0.9,2.9-0.4c0.6,0.4,1.1,0.1,1.6-0.2c2.1-1.1,4.4-0.5,6.6-0.4c0.1,0,0.3,0.2,0.3,0.3c0.1,0.3,0,0.5-0.2,0.6
		c-1.1,0.9-2.3,0.5-3.5,0c-1.4-0.6-1.4-0.6-2.3,0.7c-0.4,0.7-0.7,0.7-1.3,0.2c-0.2-0.2-0.6,0-1,0c-2.1-0.3-3.5,0.5-4,2.5
		c-0.2,0.7-0.1,1.3,0.5,1.8c0.3,0.2,0.7,0.3,0.8-0.1c0.3-0.7,0.3-1.4,0.9-2c0.9,0.6,0.9,1.2,0.3,2.1c-0.6,0.7-1.6,1.1-2,2.2
		c0.6,0,0.9,0,1.3,0.1c-1.3,0.8-1.3,0.8-0.9,2.3c0.5,1.9,1,2.3,2.9,2.2c0.4,0,0.7-0.5,1.2,0c-1.6,1.8-3.7,0.7-5.6,1.2
		c0.9,1.6,2.1,2.2,3.9,1.7c1.5-0.4,3.1-0.4,4.6-0.9c1.8-0.7,3.2-0.6,4,1.3c0,0.1,0.1,0.1,0.2,0.1c1.3-1.7,1.3-2.5,0.1-3.8
		c-0.4-0.5-1.1-0.7-1.3-1.3c0.4-0.7,1.4-0.6,1.8-1.4c-0.6-1.7-1.8-2.4-3.6-2.2c-0.5,0.1-1,0.1-1.5,0c-0.3,0-0.7-0.1-0.7-0.6
		s0.4-0.4,0.7-0.4c1.2,0,2.3,0,3.5-0.1c0.3,0,0.6-0.1,0.7-0.5s-0.1-0.6-0.4-0.8c-0.9-0.5-1.8-1.1-2.8-1.6C84.2,9,84.2,9,82.3,9
		c-0.4,0-0.8,0.1-1.3-0.3c0.6-1.4,1.7-2.3,2.8-3.1c0.2,0.1,0.4,0.1,0.5,0.2c0.9,0.5,1.7,2.6,3,0.4C87.4,5.9,87.8,6,88,6
		c0.6,0.1,1.2,0,1.7,0.3s0.8-0.1,1.1-0.4c0.3-0.3,0.3-0.8,0.1-1.1C90.1,3.6,89.6,2.4,87.7,2.4z M79.2,7.3c0.1-0.1,0.2,0,0.3,0.2
		c0,0.1,0,0.2,0,0.2c-0.1,0.2-0.3,0.2-0.3,0C79,7.6,79.1,7.4,79.2,7.3z M78.7,10.8c0.7-0.5,1,0,1.4,0.6c-1,0.2-1.9,0.6-2.9,0.6
		C77.6,11.6,78.1,11.1,78.7,10.8z M80.1,14.1c-0.4,0.5-1,0.4-1.6,0.5c-0.4,0-0.8,0-0.9-0.6c0-0.5,0.4-0.7,0.7-0.9
		c0.4-0.2,0.9,0.3,1.4,0c0.3-0.2,0.7-0.1,0.7,0.3C80.4,13.7,80.3,13.9,80.1,14.1z M82.7,12.6c0.7,0,1.5-0.3,2.1,0.2
		c-0.3,1.1-1.4,0.7-2.1,1.1c-0.2,0.1-0.6-0.3-0.6-0.6C82.1,12.8,82.3,12.5,82.7,12.6z M82.2,15.8c0.7-0.4,1.5-0.7,2.3-0.7
		c0.3,0,0.5,0.2,0.5,0.5s-0.1,0.4-0.3,0.6c-0.5,0.4-1.1,0.3-1.8,0.4c-0.1,0-0.4,0-0.6-0.1C81.9,16.2,82,15.9,82.2,15.8z"/>
</g>
</svg>
